<svg xmlns="http://www.w3.org/2000/svg" viewBox="0 0 899.52 547"><defs><style>.cls-1,.cls-5{fill:#1ec14c;}.cls-2{fill:#fff;}.cls-3{fill:#131323;}.cls-4,.cls-6{fill:#0b0b16;}.cls-5,.cls-6{fill-rule:evenodd;}</style></defs><title>logo</title><g id="Ebene_2" data-name="Ebene 2"><path class="cls-1" d="M886.24,510.13s-237.79-57.07-372.31,53c0,0,36-65.9,89-75.41,0,0-59.79-4.08-77.45,17.66L535,475.48l-16.31-15,4.76-18.34,8.15-17.67s-8.15-5.43-10.87-5.43H466.37c-4.08,0-81.53-6.8-81.53-6.8s-14.94-27.17-20.38-44.84,74.73-91,73.38-95.11S465,226.14,465,226.14l69.3-20.38s58.43,1.36,61.15,0,34,1.36,36.68,0,58.43,8.15,58.43,8.15L706.88,218l24.45,6.79,5.44-19,17.66,6.79,65.23,21.74,25.81,20.38,16.31,9.52L856.34,290l-24.45,23.1-27.18,27.18-54.35,29.89-13.59,13.59,4.08,25.82,24.45,43.48" transform="translate(-162 -152)"/><path class="cls-2" d="M496.26,326.69s81.53-54.35,126.37-50.27c0,0-57.07-8.16-92.4,1.35,0,0-39.4,34-40.76,34s-15,13.59-15,13.59" transform="translate(-162 -152)"/><path class="cls-2" d="M512.57,307.67s100.55,19,118.21,54.35c0,0-61.14-10.87-89.68-4.08,0,0,95.12,16.31,116.86,46.2,0,0-50.28-9.51-73.38-4.07,0,0,82.89,14.94,99.2,48.91,0,0-32.61-5.43-53-2.72,0,0,20.39,9.52,27.18,27.18,0,0-38.05-12.23-76.09-10.87l-16.31-16.31-44.84-27.17-50.27-35.33-25.82-27.18" transform="translate(-162 -152)"/><path class="cls-3" d="M534.31,487s62.5-27.18,118.21-17.67c0,0-19-20.38-73.37-19,0,0,53-24.46,91-9.51,0,0-69.3-44.84-138.6-38.05,0,0,77.45-20.38,106-9.51,0,0-93.76-36.69-148.11-31.25,0,0,76.09-31.25,125-6.79,0,0-66.58-40.77-125-39.41,0,0,95.11-62.5,169.85-48.92,0,0-134.52-29.89-222.84-5.43l-59.79,36.69-4.08,31.25s-8.68,33.52-8.41,35.78,17.92,29.44,17.92,29.44l34,12.23,61.15,13.59L523.44,434l8.15,5.43-9.51,19,12.23,16.31" transform="translate(-162 -152)"/><path class="cls-2" d="M630.78,280.49s53,0,73.38,8.15l-10.87,9.52,84.24,36.68-48.91-34-8.16-31.25-13.58-8.15" transform="translate(-162 -152)"/><path class="cls-2" d="M781.61,349.79S685.14,359.3,711,446.26" transform="translate(-162 -152)"/><path class="cls-2" d="M520.72,246.52s197-21.74,218.77-5.43L728.62,227.5l-97.84-12.23H502L471.8,232.93l-19,32.61" transform="translate(-162 -152)"/><path class="cls-1" d="M617.2,478.88s-23.1,28.53-24.46,29.89-36.69,28.53-36.69,28.53l-36.69-12.23,29.25-43.41,40-12.3" transform="translate(-162 -152)"/><polyline class="cls-1" points="240.51 292.91 226.92 305.13 289.42 306.49 304.37 292.91 332.9 284.75 320.68 280.68 282.63 286.11"/><path class="cls-1" d="M322.34,434l-9.51,10.87s10.87,2.71,12.23,2.71S340,435.39,341.36,434l5.44-5.44" transform="translate(-162 -152)"/><polyline class="cls-1" points="726.96 347.26 760.92 364.92 729.67 367.64"/><polyline class="cls-1" points="726.96 358.13 731.03 349.98 713.37 343.18 709.29 349.98"/><path class="cls-1" d="M572,465.48c-.05.4-.13.79-.19,1.19q4.13-.93,8.31-1.6C577.36,465.24,574.66,465.38,572,465.48Z" transform="translate(-162 -152)"/><path class="cls-1" d="M764.37,347.61c1.14-.65,2.25-1.34,3.35-2a149.29,149.29,0,0,0-21,11.36C752.52,353.87,758.5,351,764.37,347.61Z" transform="translate(-162 -152)"/><path class="cls-1" d="M772.08,475.94c-5.48-4.47-11.26-8.59-17.14-12.55C760.14,467.45,765.87,471.69,772.08,475.94Z" transform="translate(-162 -152)"/><path class="cls-1" d="M702,447.35c.23,2,.5,4.07.85,6.14l3.52-.29A31.93,31.93,0,0,1,702,447.35Z" transform="translate(-162 -152)"/><path class="cls-1" d="M789.55,487.06a271,271,0,0,0,28.05,14.45,7.72,7.72,0,0,1,.48-1.62c-9.66-3.18-18.43-8.23-27-13.65A7.36,7.36,0,0,1,789.55,487.06Z" transform="translate(-162 -152)"/><path class="cls-1" d="M993.54,331.1l-.9-1.7-1.56-1.12c-2.44-1.74-60.29-42.69-105.94-42.69h-.5l-7.38-9.22v-26l-5-2.11c-.33-.14-33.35-14.21-67.22-30.38-61.94-29.55-70.73-39.27-71.94-41.17L724.9,152l-7.24,25.34c-.22.75-4,14.49-1.11,28.74-27.69-8.73-101.27-28.72-194.4-28.72a585,585,0,0,0-132.63,14.79L391,208.24c.15,0,16,.75,32.62,3.23,5.54.83,10.19,1.7,14.09,2.58C401.55,221.32,337.32,238.3,309,271l-20.43,23.57L317.94,284c.38-.14,25.3-9.06,50.09-15.2-39.67,21.25-96.07,55.21-110,83l-11.52,23,22.68-12.21A602.5,602.5,0,0,1,326,336c-12.2,8.72-26.24,19.14-40.32,30.45-53.48,42.94-82.28,77.83-85.6,103.69l-1.76,13.76,12.88-5.15C237.14,468.4,295.65,446.23,337,434.4c-17.88,13.89-21.5,21.36-22.51,26.41L311.67,475l13.62-4.95C326.14,469.76,411.63,439,481,439h.1c-29,8.37-65.48,20.78-84.22,34.41l6.3,14.6c.41-.07,41.37-7.67,78.39-7.67,14.68,0,26.87,1.22,36,3.56-10.77,15.06-30.8,46.1-33.12,71.56l-2.83,31.15,17.68-25.8c.44-.64,35.22-51,72.2-72.92a67.3,67.3,0,0,1-18.08-1.09c-4.77-1.06-6-6.65-3.77-10.28a9.11,9.11,0,0,1-6.5-4.26,32.85,32.85,0,0,1-2.61,2.07c-2.72,1.91-8,.77-9.3-2.43-4.12-9.76-1.41-17.46,3.62-26.34a6.15,6.15,0,0,1,7.46-3,7.43,7.43,0,0,1,2.19-5.7c-.69-.84-1.35-1.7-1.95-2.56a5.87,5.87,0,0,1-1.08-3c-1.61-.78-3.12-1.54-4.45-2.33-1-.61-2-1.25-3-1.9-25-3-49.84-6.8-74.36-12.75-8.55-2.08-4.89-14.9,3.61-13.11l1.24.25a5.27,5.27,0,0,1,1.78-2.91c3.49-2.86,7.17-3.9,11.56-4.55a109.28,109.28,0,0,0,13.63-3,6.14,6.14,0,0,1,6,1.26c.76-2,1.61-4,2.55-6-1.57-.1-3.16-.24-4.71-.49-2.32.14-4.65.27-7,.44-26.2,2-52.25,5.43-78.29,8.92-2.29,1.8-4.55,3.66-6.74,5.62-4.35,3.8-10.05.89-11.46-3.21l-5.12.67c-5.76.75-9.1-8.05-4.8-11.59,7.09-5.85,14.95-8.22,23.36-9.14a6.11,6.11,0,0,1,.6-5.34A101.12,101.12,0,0,1,416.58,358L415,357.7a5.42,5.42,0,0,1-2.67-1.19l-.5.18c-7,2.52-16.91,8.26-24.27,4.4-4-2.11-4.21-7.6-1.38-10.67l.8-.85c-.59,0-1.18-.05-1.77-.12-6-.71-10.12-9.32-3.43-12.66,15.85-7.91,32.41-14.2,48.95-20.53a7.78,7.78,0,0,1-2.9-3.1q-4.46,1-8.88,2.08c-8.73,2.1-11.52-9.9-3.61-13.1,6.62-2.69,13.4-5,20.27-7.19a42.8,42.8,0,0,1,13.2-12.59c7.66-4.45,16.42-6.54,25-8.53,8.88-2.07,16.78-5.12,25.27-8.29s17.9-3.84,27-4.46c5-.35,9.93-.55,14.89-.69.36-1.08.74-2.17,1.13-3.27-5.53-1.35-11.13-3.34-15.46-6.9C507.79,252,489,253,470.11,252c-6.41-.35-9.66-9.29-3.43-12.66,14.25-7.71,32.39-9.52,48.18-12.21a238.48,238.48,0,0,1,37.2-2.93c3.58-.24,7.16-.26,10.62-.22a31.59,31.59,0,0,1,5.79-3.36c7.34-3.29,15.44-4.32,23.24-6,11.51-2.5,21.07-4.08,32.09,1.17,3.12,1.49,4.06,5.73,2.74,8.81q11.85-1.11,23.72-1.85a6.3,6.3,0,0,1,5.43-2.9c10.38.06,20.78.91,31.19,1.79,11.7-.06,23.68.15,35.24,2.1a160.83,160.83,0,0,0,17.68-.83,29.89,29.89,0,0,1-1.43-4.88c-.75-3.8,1.83-9.2,6.55-8.6,9.79,1.25,18.32,5.52,26.81,10.37,9,5.15,18.08,10.09,27.16,15.07,20.8,11.4,41.46,23,61.79,35.28,4.71,2.83,3.75,8.53.53,11.24a7,7,0,0,1-3.25,6.38c-5.29,3.67-10.88,7-16,11-4.09,3.21-7.67,7-11.86,10.08-8.72,6.46-16.91,11.9-24.19,20.05-6.63,7.42-13.41,14.74-21.14,21-8.11,6.6-16.73,11.14-26.12,15.62-15.86,7.58-29.56,17.73-37.94,33.52-6.12,11.53-14.41,30-6.94,42,1.91-4.23,4.3-7.84,10.14-8.92,8.32-1.55,15,4.36,21.38,8.7,10,6.78,20.2,13.19,29.83,20.38a6.88,6.88,0,0,1,3.07,1c15.72,9.14,30.27,21.51,48.2,26,4.51,1.14,5.6,5.37,4.37,8.76,2.79,1.19,5.5,2.71,8.31,3.74,5.15,1.88,10.47,3.31,15.67,5a82.67,82.67,0,0,0,8.56,2.2,5.56,5.56,0,0,1,6.24-4.22,24.24,24.24,0,0,1,7.11,1.76A81.2,81.2,0,0,1,888.82,503l3.62-.59C877.91,489.9,848,461.6,838.56,442.5a64.8,64.8,0,0,1,16.93-2.39c23.93,0,39.64,15.51,46.7,46.11l2.12,9.16,8.77-3.39c2.79-1.08,68.71-27.07,88.55-80.17C1011.14,386.36,1008.42,359.2,993.54,331.1Z" transform="translate(-162 -152)"/><path class="cls-4" d="M208.2,471.2s131.89-52.76,167.06-52.76c0,0-49.83,29.31-52.76,44,0,0,129-46.9,202.23-26.38,0,0-90.86,20.51-123.09,44,0,0,93.78-17.58,129,0,0,0-35.17,44-38.1,76.2,0,0,57.15-83.53,107-86.46,0,0-41-14.65-70.34-5.86,0,0,11.72-32.24,61.54-29.31,0,0-52.75-26.38-134.81-23.44,0,0,61.54-32.24,108.44-23.45,0,0-90.86-35.17-167.06-2.93,0,0,32.24-32.24,87.92-35.17,0,0-46.89-17.59-99.64,5.86,0,0,29.3-41,108.44-52.76,0,0-26.38-5.86-67.41,0,0,0,126-64.47,234.47-35.17,0,0-123.1-44-196.37-23.44,0,0,172.92-38.1,272.57-11.73V211.82s79.13,46.89,117.23,55.68c0,0,2.93,20.52-17.58,29.31,0,0-38.1,32.24-38.1,46.9,0,0-102.58,20.51-87.93,108.44,0,0,0-14.66,17.58-23.45,0,0,73.28,79.13,161.2,82.06,0,0-55.68-46.89-61.55-73.27,0,0,64.48-29.31,82.07,46.9,0,0,129-49.83,76.2-149.48,0,0-61.55-44-105.51-41l-11.72-14.65V255.78s-137.75-58.62-143.62-76.2c0,0-5.86,20.51,2.93,35.17s-2.93,2.93-2.93,2.93-158.26-58.62-334.11-17.59c0,0,64.48,2.94,73.27,17.59,0,0-111.37,14.65-149.47,58.62,0,0,73.27-26.38,96.71-20.52,0,0-126,58.62-146.54,99.65,0,0,76.2-41,102.58-38.1C367.93,317.33,215.53,414.05,208.2,471.2Z" transform="translate(-162 -152)"/><path class="cls-4" d="M886.28,510.61S617.2,476.16,513.93,563.12c0,0,150.14-137.92,302.33-97.15" transform="translate(-162 -152)"/><path class="cls-2" d="M856.34,499.26S753.08,451.7,740.85,417.73c0,0-17.67,1.36-23.1,17.66,0,0,19-69.29,93.75-84.24,0,0,17.67-46.2,44.84-50.28,0,0,112.78,9.52,130.45,53,0,0,7.47,48.23-56.39,93.07,0,0,8.15-97.83-87-100.55,0,0-14.94,14.95-35.32,13.59,0,0-54.36,23.1-48.92,55.71C759.19,415.69,829.85,485,856.34,499.26Z" transform="translate(-162 -152)"/><path class="cls-5" d="M772,409.66s31.52,22,35.5,36l-18.6-10.51s40,34,43,33.61C831.89,468.8,807.59,410.85,772,409.66Z" transform="translate(-162 -152)"/><path class="cls-6" d="M856.34,334.84s82.89,15,80.17,93.76C936.51,428.6,969.8,339.6,856.34,334.84Z" transform="translate(-162 -152)"/><circle class="cls-4" cx="815.96" cy="205.26" r="12.91"/><circle class="cls-4" cx="781.99" cy="195.75" r="7.47"/><polyline class="cls-1" points="226.92 40.17 209.25 53.76 229.8 56.28 233.71 53.76 228.27 48.23 232.35 40.17 236.72 38.09"/><polyline class="cls-1" points="235.07 321.44 224.2 335.03 242.59 335.74"/><path class="cls-1" d="M906.62,489.75l6.79,19L886.24,502l-15-14.94-23.1-23.1-10.87-21.74s10.87-4.08,10.87-6.8,28.54,4.08,28.54,4.08l19,20.38,6.79,12.23" transform="translate(-162 -152)"/><polygon class="cls-4" points="561.18 101.32 648.14 143.44 645.43 152.95 660.37 142.08 561.18 101.32"/></g><g id="Ebene_6" data-name="Ebene 6"><path class="cls-1" d="M227.22,421.81,185.1,415,162,584.86,969.12,699l8.16-66.58s54.35-23.1,44.84-65.22l39.4-42.13L882.16,497.9l6.12,11.55v27.17l-187.52-9.51-131.8-19s-251.38-31.25-251.38-32.61-70.66-17.67-72-17.67S227.22,421.81,227.22,421.81Z" transform="translate(-162 -152)"/><path class="cls-4" d="M171.57,579.62l787,98.88-5.57-61-28.17-56.44-41.7-30.71L867,506.82l-55-6.91L674.91,479.75s-62.57,6.83-66.55,3.4-44.84-5.64-44.84-5.64l-119-23.77-253.16-31.8" transform="translate(-162 -152)"/><path class="cls-4" d="M987,522.16,866.6,507l-1.05,8.35a68.11,68.11,0,0,0-15.42-8.08,86,86,0,0,0-19.66-4.81l-73.42-9.22-19.59-2.46-33.76-4.25L682,483.84l-127.63-16-1,8.19a68.61,68.61,0,0,0-15.13-7.89,86.6,86.6,0,0,0-19.66-4.8l-37-4.65a85.18,85.18,0,0,0-20.52-.21,69.74,69.74,0,0,0-15,3.42l.95-7.56-70-8.79a85.39,85.39,0,0,0-20.25-.2,67.12,67.12,0,0,0-18.26,4.5,46.38,46.38,0,0,0-9.51,5.28,46,46,0,0,0-8.25-7.64,69.94,69.94,0,0,0-16.52-8.75,85.64,85.64,0,0,0-19.67-4.8l-93-11.69L171.79,579.13l93,11.69A85.87,85.87,0,0,0,285,591a69.58,69.58,0,0,0,18.18-4.4,46.94,46.94,0,0,0,9.89-5.33,46.18,46.18,0,0,0,7.9,7.44,67.25,67.25,0,0,0,16.57,8.89,85.9,85.9,0,0,0,19.67,4.8l70,8.8.95-7.56a69.56,69.56,0,0,0,13.72,7,85.44,85.44,0,0,0,19.95,4.88l37,4.64a85.87,85.87,0,0,0,20.24.21,66.76,66.76,0,0,0,18.26-4.51,43.08,43.08,0,0,0,14.48-9.49,26.42,26.42,0,0,0,7.59-15.32l5.1-40.6-28.71-16.87,30.35,3.81,2-15.92,16.79,2.11L571.63,629.37l75.06,9.43L660,533.07l15.57,2L662.27,640.76l55.48,7,19.58,2.46,129.45,16.26,7.68-61.12a68.38,68.38,0,0,0,15.4,8.07l.9.34-6.89,54.86L958.93,678l6.9-54.86.94-.1a69.68,69.68,0,0,0,18.18-4.4,42,42,0,0,0,15-9.77,26.43,26.43,0,0,0,7.46-15.11l2.82-22.45,33.34-43.28ZM389.58,499.09l29.52,3.71-.2,1.59-29.52-3.71Zm-6.66,53,29.52,3.71-.2,1.59-29.52-3.71Zm52.73-7.93.49-3.85,8.45,5Z" transform="translate(-162 -152)"/><path class="cls-2" d="M308.23,458.39a48.4,48.4,0,0,0-11.41-6,62,62,0,0,0-14.2-3.46l-74-9.29L192.72,566.49l74,9.29a62.22,62.22,0,0,0,14.6.17,48.34,48.34,0,0,0,12.54-3,25.36,25.36,0,0,0,8.87-5.65,13.62,13.62,0,0,0,3.93-7.95l10.63-84.62a13.76,13.76,0,0,0-1.85-8.58A25,25,0,0,0,308.23,458.39Zm-38.89,96.28-37-4.65L243,465.4l37,4.65Z" transform="translate(-162 -152)"/><path class="cls-2" d="M375.08,460.55a61.75,61.75,0,0,0-14.61-.16,45,45,0,0,0-12.38,3,25,25,0,0,0-8.73,5.76,13.72,13.72,0,0,0-3.92,7.86l-3.32,26.47-7.31,58.15a13.69,13.69,0,0,0,1.85,8.58,25.19,25.19,0,0,0,7,7.74,45.37,45.37,0,0,0,11.26,6,61.9,61.9,0,0,0,14.19,3.46l50.93,6.4,2.65-21.12-13.94-1.75-37-4.65,4-31.66L416.7,541l2.68-21.28L405.43,518l-37-4.65,4-31.67,50.93,6.4L426,467l-13.95-1.75Z" transform="translate(-162 -152)"/><path class="cls-2" d="M542.1,487.78a45.38,45.38,0,0,0-11.26-6,61.38,61.38,0,0,0-14.19-3.45l-37-4.65a61.09,61.09,0,0,0-14.76-.18,45.93,45.93,0,0,0-12.23,3,25,25,0,0,0-8.73,5.76,13.64,13.64,0,0,0-3.91,7.86l-4,31.66L506,563l-2.65,21.11-37-4.65,2-15.92-37-4.64-2,15.92a13.64,13.64,0,0,0,1.84,8.67,25.8,25.8,0,0,0,7,7.65,45.71,45.71,0,0,0,11.11,6,60.93,60.93,0,0,0,14.35,3.48l37,4.64a61.24,61.24,0,0,0,14.61.17,45.38,45.38,0,0,0,12.38-3,25.64,25.64,0,0,0,8.72-5.67,13.57,13.57,0,0,0,3.93-7.94l4-31.67-70-41.13L477,494.8l37,4.65-2,15.92L549,520l2-15.92a13.73,13.73,0,0,0-1.85-8.58A25.31,25.31,0,0,0,542.1,487.78Z" transform="translate(-162 -152)"/><polygon class="cls-1" points="406.86 354.34 443.85 358.99 430.56 464.72 467.54 469.37 480.83 363.64 518.12 368.32 520.77 347.21 409.51 333.23 406.86 354.34"/><rect class="cls-1" x="645.74" y="548.38" width="127.84" height="37.28" transform="translate(-103.4 1048.45) rotate(-82.84)"/><path class="cls-1" d="M854,527a45.53,45.53,0,0,0-11.26-6,62.42,62.42,0,0,0-14.19-3.45l-18.49-2.32a62.06,62.06,0,0,0-18.84.44l.35-2.77-37-4.64L738.67,635.08l37,4.65L788.94,534l37,4.64L812.64,644.38l37,4.64,13.28-105.73a13.69,13.69,0,0,0-1.85-8.58A25.06,25.06,0,0,0,854,527Z" transform="translate(-162 -152)"/><path class="cls-1" d="M1011.38,540l-26-2.72-27.67-3.47-6.65,53-37-4.65,6.66-52.95-37-4.65-6.65,53A13.69,13.69,0,0,0,879,586a25.29,25.29,0,0,0,7,7.74,45.37,45.37,0,0,0,11.26,6,61.9,61.9,0,0,0,14.19,3.46L904.8,656l37,4.64,6.63-52.78A61.77,61.77,0,0,0,963,608a48.44,48.44,0,0,0,12.54-3,24.77,24.77,0,0,0,8.88-5.74,13.65,13.65,0,0,0,3.91-7.85l3.24-25.77Z" transform="translate(-162 -152)"/><polyline class="cls-4" points="27.18 398.89 51.63 394.81 36.69 420.63 23.1 420.63"/><polyline class="cls-4" points="182.08 307.85 198.38 321.44 198.38 299.7"/><polyline class="cls-4" points="365.51 457.32 354.64 431.5 387.26 449.17"/><polyline class="cls-4" points="428.02 326.88 441.61 348.62 455.2 332.11"/><polyline class="cls-4" points="512.26 465.47 544.88 465.47 521.78 483.14"/><polyline class="cls-4" points="675.32 360.85 683.47 385.3 709.29 370.36"/><polyline class="cls-4" points="733.75 492.65 756.85 492.65 748.7 511.67"/></g><g id="Ebene_4" data-name="Ebene 4"><path class="cls-4" d="M803.35,297.84,719,255.66s-65.19,3.83-88.2,24.92c0,0,62.32-12.46,91.08,4.8l-21.09,11.5s63.27,28.76,74.78,28.76L741,308.38S789,306.47,803.35,297.84Z" transform="translate(-162 -152)"/><path class="cls-2" d="M728.62,273.7l42.12,19S736.77,300.87,728.62,273.7Z" transform="translate(-162 -152)"/></g><g id="Ebene_8" data-name="Ebene 8"><polyline class="cls-2" points="679.4 192.35 687.55 205.94 703.86 205.94 709.29 215.45 731.03 218.17 731.03 223.61 739.18 238.55 744.62 230.4 748.7 242.63 748.7 260.3 751.41 253.5 759.57 263.01 763.64 276.6 770.44 276.6 767.72 254.86 758.21 234.48 754.13 220.89 739.18 208.66 726.96 199.15 706.57 196.43"/></g></svg>